<svg xmlns="http://www.w3.org/2000/svg" xmlns:xlink="http://www.w3.org/1999/xlink" width="16" height="14" version="1.1" viewBox="0 0 16 14"><title>Slice 1</title><description>Created with Sketch (http://www.bohemiancoding.com/sketch)</description><g id="Page-1" fill="none" fill-rule="evenodd" stroke="none" stroke-width="1"><g id="icon_53227" fill="#EEE"><g id="Group"><path id="Shape" d="M0.888888889,2.33333333 L15.1111111,2.33333333 C15.6,2.33333333 16,1.80833333 16,1.16666667 C16,0.525 15.6,0 15.1111111,0 L0.888888889,0 C0.4,0 0,0.525 0,1.16666667 C0,1.80833333 0.4,2.33333333 0.888888889,2.33333333 L0.888888889,2.33333333 Z"/><path id="Shape" d="M15.1111111,5.83333333 L0.888888889,5.83333333 C0.4,5.83333333 0,6.35833333 0,7 C0,7.64166667 0.4,8.16666667 0.888888889,8.16666667 L15.1111111,8.16666667 C15.6,8.16666667 16,7.64166667 16,7 C16,6.35833333 15.6,5.83333333 15.1111111,5.83333333 L15.1111111,5.83333333 Z"/><path id="Shape" d="M15.1111111,11.6666667 L0.888888889,11.6666667 C0.4,11.6666667 0,12.1916667 0,12.8333333 C0,13.475 0.4,14 0.888888889,14 L15.1111111,14 C15.6,14 16,13.475 16,12.8333333 C16,12.1916667 15.6,11.6666667 15.1111111,11.6666667 L15.1111111,11.6666667 Z"/></g></g></g></svg>